<svg xmlns="http://www.w3.org/2000/svg" viewBox="0 0 370 100"  width="150">
    <defs id="SvgjsDefs1529">
    <linearGradient id="SvgjsLinearGradient1534">
        <stop id="SvgjsStop1535" stop-color="#00ff8f" offset="0"></stop>
        <stop id="SvgjsStop1536" stop-color="#00a1ff" offset="1"></stop>
    </linearGradient>
    </defs>
    <g id="SvgjsG1530" featurekey="HKaMnE-0" transform="matrix(0.961940944647622,0,0,0.961940944647622,2.344623309484989,7.537013149695584)" fill="url(#SvgjsLinearGradient1534)">
    <g xmlns="http://www.w3.org/2000/svg">
        <path d="M9.5,16.9V37L31.5,59c-0.8,1.1-1.3,2.5-1.3,3.9c0,3.7,3,6.7,6.7,6.7s6.7-3,6.7-6.7c0-3.7-3-6.7-6.7-6.7   c-1.5,0-2.8,0.5-3.9,1.3L11.5,36.2V16.9c3.2-0.5,5.7-3.2,5.7-6.6c0-3.7-3-6.7-6.7-6.7s-6.7,3-6.7,6.7C3.9,13.7,6.3,16.4,9.5,16.9z    M41.5,62.9c0,2.6-2.1,4.7-4.7,4.7c-2.6,0-4.7-2.1-4.7-4.7s2.1-4.7,4.7-4.7C39.4,58.3,41.5,60.4,41.5,62.9z M10.5,5.7   c2.6,0,4.7,2.1,4.7,4.7c0,2.6-2.1,4.7-4.7,4.7c-2.6,0-4.7-2.1-4.7-4.7C5.9,7.8,8,5.7,10.5,5.7z"></path>
        <path d="M90.4,30.1V16.9c3.2-0.5,5.7-3.2,5.7-6.6c0-3.7-3-6.7-6.7-6.7c-3.3,0-6.1,2.5-6.6,5.7H43.4c-0.5-3.2-3.2-5.7-6.6-5.7   c-3.7,0-6.7,3-6.7,6.7s3,6.7,6.7,6.7c3.3,0,6.1-2.5,6.6-5.7h39.5c0.4,2.9,2.7,5.1,5.6,5.6v13.2c-3.2,0.5-5.7,3.2-5.7,6.6   c0,1.5,0.5,2.8,1.3,3.9l-17,17c-1.1-0.8-2.5-1.3-3.9-1.3c-3.7,0-6.7,3-6.7,6.7c0,3.7,3,6.7,6.7,6.7s6.7-3,6.7-6.7   c0-1.5-0.5-2.8-1.3-3.9l17-17c1.1,0.8,2.5,1.3,3.9,1.3c3.7,0,6.7-3,6.7-6.7C96.1,33.3,93.6,30.5,90.4,30.1z M36.8,15   c-2.6,0-4.7-2.1-4.7-4.7c0-2.6,2.1-4.7,4.7-4.7c2.6,0,4.7,2.1,4.7,4.7C41.5,12.9,39.4,15,36.8,15z M84.8,10.3   c0-2.6,2.1-4.7,4.7-4.7s4.7,2.1,4.7,4.7c0,2.6-2.1,4.7-4.7,4.7S84.8,12.9,84.8,10.3z M63.1,67.6c-2.6,0-4.7-2.1-4.7-4.7   s2.1-4.7,4.7-4.7s4.7,2.1,4.7,4.7S65.7,67.6,63.1,67.6z M89.4,41.3c-2.6,0-4.7-2.1-4.7-4.7c0-2.6,2.1-4.7,4.7-4.7s4.7,2.1,4.7,4.7   C94.1,39.2,92,41.3,89.4,41.3z"></path>
        <path d="M96.1,62.9c0-3.7-3-6.7-6.7-6.7c-3.7,0-6.7,3-6.7,6.7c0,3.3,2.5,6.1,5.7,6.6v13.2c-2.9,0.4-5.1,2.7-5.6,5.6H69.7   c-0.5-3.2-3.2-5.7-6.6-5.7c-3.7,0-6.7,3-6.7,6.7s3,6.7,6.7,6.7c3.3,0,6.1-2.5,6.6-5.7h13.2c0.5,3.2,3.2,5.7,6.6,5.7   c3.7,0,6.7-3,6.7-6.7c0-3.3-2.5-6.1-5.7-6.6V69.5C93.6,69,96.1,66.2,96.1,62.9z M63.1,93.9c-2.6,0-4.7-2.1-4.7-4.7s2.1-4.7,4.7-4.7   s4.7,2.1,4.7,4.7S65.7,93.9,63.1,93.9z M84.8,62.9c0-2.6,2.1-4.7,4.7-4.7s4.7,2.1,4.7,4.7s-2.1,4.7-4.7,4.7S84.8,65.5,84.8,62.9z    M94.1,89.2c0,2.6-2.1,4.7-4.7,4.7s-4.7-2.1-4.7-4.7s2.1-4.7,4.7-4.7S94.1,86.7,94.1,89.2z"></path>
        <path d="M56.6,37.6c0.5,3.2,3.2,5.7,6.6,5.7c3.7,0,6.7-3,6.7-6.7s-3-6.7-6.7-6.7c-3.3,0-6.1,2.5-6.6,5.7H43.4   c-0.5-3.2-3.2-5.7-6.6-5.7c-3.7,0-6.7,3-6.7,6.7s3,6.7,6.7,6.7c3.3,0,6.1-2.5,6.6-5.7H49v25.3v12.7L36.4,88.2H17.1   c-0.4-2.9-2.7-5.1-5.6-5.6V69.5c3.2-0.5,5.7-3.2,5.7-6.6c0-3.7-3-6.7-6.7-6.7s-6.7,3-6.7,6.7c0,3.3,2.5,6.1,5.7,6.6v13.2   c-3.2,0.5-5.7,3.2-5.7,6.6c0,3.7,3,6.7,6.7,6.7c3.3,0,6.1-2.5,6.6-5.7h20.1L51,76.5v-0.4V62.9V37.6H56.6z M63.1,32   c2.6,0,4.7,2.1,4.7,4.7c0,2.6-2.1,4.7-4.7,4.7s-4.7-2.1-4.7-4.7C58.5,34.1,60.6,32,63.1,32z M36.8,41.3c-2.6,0-4.7-2.1-4.7-4.7   c0-2.6,2.1-4.7,4.7-4.7c2.6,0,4.7,2.1,4.7,4.7C41.5,39.2,39.4,41.3,36.8,41.3z M5.9,62.9c0-2.6,2.1-4.7,4.7-4.7   c2.6,0,4.7,2.1,4.7,4.7s-2.1,4.7-4.7,4.7C8,67.6,5.9,65.5,5.9,62.9z M10.5,93.9c-2.6,0-4.7-2.1-4.7-4.7s2.1-4.7,4.7-4.7   c2.6,0,4.7,2.1,4.7,4.7S13.1,93.9,10.5,93.9z"></path>
    </g>
    </g>
    <g id="SvgjsG1531" featurekey="J3GnXt-0" transform="matrix(3.7132627330636065,0,0,3.7132627330636065,106.92057573789145,-8.172180548397314)" fill="#000">
    <path d="M4.56 10.28 c0.72 0 1.3633 0.13338 1.93 0.40004 s1.0033 0.65332 1.31 1.16 l-1.4 1.06 c-0.53334 -0.62666 -1.18 -0.94 -1.94 -0.94 c-0.45334 0 -0.83 0.1 -1.13 0.3 s-0.45 0.45334 -0.45 0.76 c0 0.66666 0.62 1.12 1.86 1.36 c1.2133 0.22666 2.07 0.56 2.57 1 s0.75 1.0667 0.75 1.88 c0 0.92 -0.35 1.6433 -1.05 2.17 s-1.6367 0.79666 -2.81 0.81 c-0.88 0 -1.6033 -0.13666 -2.17 -0.41 s-1.0567 -0.69668 -1.47 -1.27 l1.36 -1.12 c0.72 0.74666 1.4867 1.12 2.3 1.12 c0.53334 0 0.98668 -0.10666 1.36 -0.32 s0.56 -0.50668 0.56 -0.88002 c0 -0.65334 -0.6 -1.1067 -1.8 -1.36 c-1.3333 -0.26666 -2.23 -0.62332 -2.69 -1.07 s-0.69 -1.0233 -0.69 -1.73 c0 -0.88 0.34 -1.5833 1.02 -2.11 s1.54 -0.79666 2.58 -0.81 z M14.580000000000002 10.28 c1.4533 0 2.5834 0.45664 3.39 1.37 s1.2167 2.17 1.23 3.77 l0 0.5 l-7.6 0 c0 0.77334 0.31 1.4233 0.93 1.95 s1.3767 0.79666 2.27 0.81 c0.98666 0 1.8533 -0.47334 2.6 -1.42 l1.36 1.04 c-1.0133 1.2933 -2.4134 1.94 -4.2 1.94 c-1.4533 0 -2.6234 -0.46334 -3.51 -1.39 s-1.3433 -2.1234 -1.37 -3.59 c0 -1.4133 0.45666 -2.59 1.37 -3.53 s2.09 -1.4233 3.53 -1.45 z M17.28 14.48 c-0.02666 -0.89334 -0.28 -1.5767 -0.76 -2.05 s-1.14 -0.71 -1.98 -0.71 c-0.56 0 -1.0633 0.13666 -1.51 0.41 s-0.79666 0.62668 -1.05 1.06 s-0.38 0.86334 -0.38 1.29 l5.68 0 z M26.04 10.28 c0.33334 0 0.6 0.04 0.8 0.12 l-0.08 1.94 c-0.34666 -0.09334 -0.64666 -0.14 -0.9 -0.14 c-1.7733 0 -2.6734 0.98666 -2.7 2.96 l0 4.84 l-1.8 0 l0 -9.48 l1.8 0 l0 1.46 l0.04 0 c0.24 -0.50666 0.62666 -0.91666 1.16 -1.23 s1.0933 -0.47 1.68 -0.47 z M33.92 10.28 c1.4 0 2.5434 0.45998 3.43 1.38 s1.3433 2.12 1.37 3.6 c0 1.48 -0.45334 2.6766 -1.36 3.59 s-2.06 1.3767 -3.46 1.39 c-0.69334 0 -1.34 -0.14666 -1.94 -0.44 s-1.0533 -0.68 -1.36 -1.16 l-0.04 0 l0 7 l-1.8 0 l0 -15.12 l1.8 0 l0 1.36 l0.04 0 c0.36 -0.50666 0.83334 -0.9 1.42 -1.18 s1.22 -0.42 1.9 -0.42 z M30.56 15.26 c0 0.98666 0.28998 1.7833 0.86998 2.39 s1.33 0.91 2.25 0.91 c0.96 0 1.7167 -0.30334 2.27 -0.91 s0.83668 -1.4033 0.85002 -2.39 c0 -0.98666 -0.28334 -1.78 -0.85 -2.38 s-1.33 -0.90666 -2.29 -0.92 c-0.94666 0 -1.7 0.31 -2.26 0.93 s-0.84 1.41 -0.84 2.37 z M45.32 10.28 c1.4533 0 2.5834 0.45664 3.39 1.37 s1.2167 2.17 1.23 3.77 l0 0.5 l-7.6 0 c0 0.77334 0.31 1.4233 0.93 1.95 s1.3767 0.79666 2.27 0.81 c0.98666 0 1.8533 -0.47334 2.6 -1.42 l1.36 1.04 c-1.0133 1.2933 -2.4134 1.94 -4.2 1.94 c-1.4533 0 -2.6234 -0.46334 -3.51 -1.39 s-1.3433 -2.1234 -1.37 -3.59 c0 -1.4133 0.45666 -2.59 1.37 -3.53 s2.09 -1.4233 3.53 -1.45 z M48.019999999999996 14.48 c-0.02666 -0.89334 -0.28 -1.5767 -0.76 -2.05 s-1.14 -0.71 -1.98 -0.71 c-0.56 0 -1.0633 0.13666 -1.51 0.41 s-0.79666 0.62668 -1.05 1.06 s-0.38 0.86334 -0.38 1.29 l5.68 0 z M55.89999999999999 10.28 c1.2 0 2.15 0.27328 2.85 0.81994 s1.07 1.3067 1.11 2.28 l0 5.08 c0 0.48 0.02666 0.99334 0.08 1.54 l-1.6 0 c-0.04 -0.42666 -0.06 -0.90666 -0.06 -1.44 l-0.04 0 c-0.41334 0.61334 -0.89 1.0467 -1.43 1.3 s-1.17 0.38 -1.89 0.38 c-0.97334 0 -1.7633 -0.26 -2.37 -0.78 s-0.91 -1.2067 -0.91 -2.06 c0 -1.08 0.45334 -1.8967 1.36 -2.45 s2.1866 -0.83 3.84 -0.83 l1.34 0 l0 -0.34 c0 -0.64 -0.21 -1.1433 -0.63 -1.51 s-0.97 -0.55 -1.65 -0.55 c-0.50666 0 -0.95 0.07666 -1.33 0.23 s-0.83 0.43668 -1.35 0.85002 l-1.08 -1.12 c1.0267 -0.90666 2.28 -1.3733 3.76 -1.4 z M53.44 17.259999999999998 c0 1.0267 0.68002 1.54 2.04 1.54 c0.81334 0 1.4633 -0.24334 1.95 -0.73 s0.73666 -1.19 0.75 -2.11 l0 -0.52 l-1.02 0 c-1.1733 0 -2.0866 0.15 -2.74 0.45 s-0.98 0.75666 -0.98 1.37 z M67.44 10.28 c1.0667 0 1.9033 0.32 2.51 0.96 s0.91666 1.5 0.93 2.58 l0 6.18 l-1.8 0 l0 -5.66 c0 -0.73334 -0.19 -1.3133 -0.57 -1.74 s-0.91 -0.64 -1.59 -0.64 c-0.84 0 -1.49 0.28 -1.95 0.84 s-0.69 1.3067 -0.69 2.24 l0 4.96 l-1.8 0 l0 -9.48 l1.8 0 l0 1.46 l0.04 0 c0.25334 -0.53334 0.66334 -0.95 1.23 -1.25 s1.1967 -0.45 1.89 -0.45 z"></path>
    </g>
</svg>